<?xml version="1.0" standalone="no"?>
<!DOCTYPE svg PUBLIC "-//W3C//DTD SVG 20010904//EN"
 "http://www.w3.org/TR/2001/REC-SVG-20010904/DTD/svg10.dtd">
<svg version="1.0" xmlns="http://www.w3.org/2000/svg"
 width="500.000000pt" height="500.000000pt" viewBox="0 0 500.000000 500.000000"
 preserveAspectRatio="xMidYMid meet">

<g transform="translate(0.000000,500.000000) scale(0.100000,-0.100000)"
fill="#000000" stroke="none">
<path d="M1765 2460 l-730 -730 733 -733 732 -732 732 732 733 733 -730 730
c-401 401 -732 730 -735 730 -3 0 -334 -329 -735 -730z m1460 -10 l720 -720
-723 -723 -722 -722 -722 722 -723 723 720 720 c396 396 722 720 725 720 3 0
329 -324 725 -720z"/>
<path d="M1755 2211 c-47 -12 -91 -38 -114 -66 -42 -55 -46 -86 -46 -390 0
-284 0 -291 24 -343 27 -61 57 -87 114 -103 62 -17 122 -3 167 37 l38 35 12
-36 12 -35 123 0 124 0 5 33 c3 17 7 50 8 72 l3 40 51 3 c50 3 51 2 58 -29 3
-17 6 -51 6 -75 l0 -44 85 0 85 0 0 28 c0 15 -18 214 -40 442 -22 228 -40 418
-40 423 0 4 -69 6 -152 5 l-153 -3 -40 -415 -40 -415 -3 228 -2 227 -110 0
-110 0 0 -75 c0 -68 2 -75 20 -75 19 0 20 -7 20 -93 0 -59 -4 -97 -12 -105
-18 -18 -56 -14 -68 7 -6 12 -10 118 -10 275 0 218 2 257 16 270 18 19 45 21
62 4 7 -7 12 -39 12 -75 l0 -63 91 0 91 0 -7 68 c-13 130 -42 191 -105 223
-41 21 -132 31 -175 20z m539 -346 c9 -99 19 -199 22 -222 l5 -43 -40 0 c-49
0 -47 -17 -26 245 8 99 15 186 15 194 0 8 2 12 4 10 3 -3 12 -85 20 -184z"/>
<path d="M2527 2203 c-4 -3 -7 -206 -7 -450 l0 -443 95 0 95 0 0 205 c0 191 1
205 18 205 39 0 42 -17 42 -217 l0 -193 90 0 90 0 0 195 c0 205 -6 241 -47
264 -16 9 -15 11 9 30 40 32 51 79 46 194 -8 193 -37 216 -274 217 -83 0 -154
-3 -157 -7z m253 -182 c13 -25 13 -82 0 -115 -7 -20 -16 -26 -40 -26 l-30 0 0
80 0 80 30 0 c19 0 33 -7 40 -19z"/>
<path d="M2980 1761 l0 -451 138 0 c75 0 153 5 173 10 74 21 114 94 125 228 9
109 -9 187 -52 230 l-34 34 30 25 c39 32 54 89 47 181 -7 87 -31 139 -78 167
-29 17 -56 20 -191 23 l-158 4 0 -451z m238 297 c15 -15 16 -142 2 -169 -7
-12 -21 -19 -40 -19 l-30 0 0 100 0 100 28 0 c15 0 33 -5 40 -12z m6 -350 c12
-16 16 -47 16 -112 0 -101 -12 -126 -62 -126 l-28 0 0 130 0 130 29 0 c20 0
35 -8 45 -22z"/>
</g>
</svg>
