<?xml version="1.0" standalone="no"?>
<!DOCTYPE svg PUBLIC "-//W3C//DTD SVG 20010904//EN"
 "http://www.w3.org/TR/2001/REC-SVG-20010904/DTD/svg10.dtd">
<svg version="1.0" xmlns="http://www.w3.org/2000/svg"
 width="500.000000pt" height="500.000000pt" viewBox="0 0 500.000000 500.000000"
 preserveAspectRatio="xMidYMid meet">

<g transform="translate(0.000000,500.000000) scale(0.100000,-0.100000)"
fill="#000000" stroke="none">
<path d="M1618 3293 c-22 -21 -50 -56 -61 -78 -22 -47 -60 -114 -102 -182 -25
-40 -30 -59 -30 -113 0 -51 -6 -76 -28 -117 -21 -41 -27 -66 -27 -116 0 -47
-4 -68 -16 -78 -24 -20 -13 -110 25 -199 18 -41 37 -100 42 -130 6 -30 19 -70
30 -88 10 -18 19 -41 19 -51 0 -40 85 -100 189 -133 65 -20 69 -23 74 -56 8
-48 24 -62 69 -62 l39 0 -7 -35 c-8 -42 15 -75 52 -75 25 0 54 -24 54 -45 0
-25 42 -46 77 -39 18 3 39 2 46 -4 6 -5 42 -12 78 -16 76 -7 83 -3 98 63 15
67 25 72 131 58 41 -6 60 -4 74 6 19 14 18 16 -22 54 -23 22 -42 47 -42 55 0
8 -9 23 -20 33 -11 10 -20 26 -20 35 0 46 -23 80 -71 107 -67 36 -73 63 -25
107 30 29 36 40 36 76 0 90 -46 140 -250 275 -313 206 -444 465 -350 687 17
40 28 78 26 85 -9 24 -45 14 -88 -24z m42 -37 c0 -2 -7 -21 -17 -42 -11 -26
-16 -67 -16 -124 -1 -102 27 -183 100 -293 71 -107 145 -176 293 -272 151 -97
193 -133 221 -187 32 -62 24 -109 -22 -132 -18 -8 -25 -21 -27 -49 -4 -44 8
-61 59 -87 52 -27 69 -47 69 -82 0 -18 10 -42 25 -60 14 -16 25 -35 25 -43 0
-7 16 -25 36 -40 49 -37 30 -47 -63 -33 -39 6 -78 8 -86 5 -9 -3 -23 -31 -32
-61 -18 -60 -39 -86 -57 -68 -7 7 -7 25 2 62 8 32 15 47 20 40 6 -9 13 -4 25
16 9 16 14 21 11 12 -9 -31 5 -19 20 17 18 45 18 48 -6 33 -15 -10 -24 -10
-38 -2 -17 12 -19 26 -6 78 l7 30 -28 -22 c-50 -40 -88 11 -49 66 19 28 8 45
-11 18 -10 -13 -21 -17 -39 -12 -35 9 -43 42 -17 77 27 36 26 41 -5 33 -18 -5
-29 -1 -39 12 -32 42 -5 93 49 95 17 0 24 3 16 6 -50 18 -65 67 -30 98 18 17
21 17 46 1 24 -17 26 -17 22 0 -1 9 -10 20 -18 24 -127 59 -161 80 -222 141
-38 37 -68 72 -68 79 0 6 11 -2 24 -17 35 -41 38 -25 5 21 -16 21 -30 33 -30
25 -1 -8 -5 2 -9 21 -7 33 -7 31 -9 -17 0 -29 -6 -53 -11 -53 -6 0 -27 16 -48
35 -36 34 -36 34 -12 35 23 1 22 2 -10 16 -19 8 -45 29 -57 47 -26 37 -29 51
-10 42 6 -4 2 2 -11 12 -24 19 -62 72 -62 86 0 4 10 2 23 -4 20 -10 19 -9 -5
17 -42 45 -65 123 -33 110 20 -7 19 1 -5 31 -21 28 -27 97 -10 123 6 10 10 11
10 3 0 -7 5 -13 10 -13 6 0 10 14 10 30 0 38 23 84 52 104 21 15 38 20 38 12z
m-138 -360 c0 -27 3 -34 10 -25 7 10 8 8 3 -8 -9 -32 37 -134 105 -235 62 -92
68 -115 13 -51 -49 58 -39 31 12 -31 49 -61 58 -80 23 -50 -13 10 -7 2 11 -19
30 -31 32 -37 15 -37 -20 0 -47 20 -79 58 -19 23 -19 23 1 16 10 -4 0 7 -23
24 -51 38 -73 72 -46 72 12 0 8 6 -14 20 -18 10 -39 33 -48 49 -19 38 -19 42
3 34 12 -5 9 2 -10 25 -27 32 -55 109 -44 119 3 3 12 0 21 -7 10 -8 6 5 -10
36 -21 42 -24 54 -15 85 6 20 20 49 33 65 l22 29 8 -65 c5 -36 9 -82 9 -104z
m-67 -148 c26 -80 87 -186 151 -258 l56 -65 -70 72 c-39 39 -85 96 -101 125
-17 29 -31 49 -31 45 0 -17 44 -94 79 -137 20 -24 36 -49 36 -55 1 -18 26 -55
37 -55 6 0 1 12 -13 28 -16 18 -12 16 13 -7 21 -19 36 -37 33 -40 -2 -4 5 -30
15 -59 10 -28 15 -52 11 -52 -15 0 -76 59 -61 60 8 0 -5 10 -30 21 -41 19 -43
22 -27 34 17 12 16 14 -12 20 -17 4 -41 21 -57 42 l-27 35 24 -7 c21 -6 20 -3
-9 20 -32 27 -53 58 -67 104 -6 20 -4 23 9 18 15 -6 15 -4 1 23 -17 34 -20
102 -4 131 14 27 24 18 44 -43z m165 -48 c6 -11 8 -20 6 -20 -3 0 -10 9 -16
20 -6 11 -8 20 -6 20 3 0 10 -9 16 -20z m65 -96 c15 -19 25 -37 22 -40 -2 -2
-16 14 -31 36 -33 50 -28 52 9 4z m-271 -69 c48 -92 170 -217 276 -283 19 -12
30 -22 24 -22 -25 0 -143 87 -206 152 -38 38 -68 65 -68 59 0 -18 133 -146
193 -186 31 -21 57 -39 57 -41 0 -7 -36 10 -63 29 -16 10 -30 17 -33 15 -3 -4
69 -58 82 -63 1 0 4 -12 8 -27 5 -23 3 -25 -15 -21 -12 3 -18 11 -15 19 4 10
-3 14 -23 14 -16 0 -34 7 -41 15 -10 12 -10 15 1 15 8 0 -6 10 -31 21 -52 23
-67 41 -42 50 14 6 11 9 -13 18 -47 17 -58 26 -82 61 -25 35 -31 62 -11 42 28
-28 29 -9 1 21 -41 43 -53 69 -53 115 0 36 6 52 19 52 3 0 19 -25 35 -55z
m413 -13 c43 -42 113 -96 163 -125 25 -15 38 -27 29 -27 -8 0 -36 14 -62 30
-26 17 -50 30 -54 30 -14 0 24 -33 60 -51 21 -11 37 -23 34 -26 -3 -2 -26 7
-51 22 -62 36 -58 24 7 -21 51 -35 36 -39 -26 -7 -16 8 -31 12 -34 9 -4 -3 19
-17 50 -32 54 -24 73 -44 44 -44 -30 0 -138 63 -185 108 -51 48 -81 113 -69
146 10 26 62 20 94 -12z m-41 -152 c27 -23 84 -59 128 -80 87 -44 88 -54 1
-16 -30 14 -55 21 -55 17 0 -5 25 -19 55 -32 66 -29 73 -44 9 -22 -25 8 -48
13 -50 10 -3 -3 17 -14 45 -24 66 -23 65 -37 -1 -29 -50 7 -154 50 -189 78
-35 29 -62 112 -42 131 16 17 55 4 99 -33z m-181 -207 c39 -23 87 -46 108 -53
21 -7 36 -14 34 -16 -6 -7 -86 24 -145 56 -51 28 -54 28 -33 6 19 -20 49 -37
151 -84 25 -11 25 -11 -4 -5 -29 6 -29 6 -9 -14 11 -11 28 -23 38 -27 13 -5
15 -10 8 -17 -19 -19 -147 26 -139 47 3 9 -2 14 -15 14 -27 0 -69 23 -94 50
l-20 23 25 -8 c22 -6 21 -3 -13 29 -40 37 -57 72 -57 112 0 24 3 22 48 -23 26
-27 79 -68 117 -90z m270 22 c102 -26 120 -36 55 -30 -38 3 -49 2 -35 -4 11
-5 34 -10 50 -10 17 -1 37 -6 45 -12 11 -7 -2 -9 -47 -7 -80 4 -65 -13 19 -22
63 -6 63 -6 25 -14 -99 -21 -250 18 -263 68 -15 62 9 67 151 31z m132 -121
c-3 -4 -21 -10 -39 -14 l-33 -8 40 -2 c34 -1 37 -3 18 -10 -34 -14 -28 -23 10
-15 30 6 30 6 12 -7 -11 -8 -47 -25 -80 -38 -33 -13 -75 -34 -92 -47 -26 -19
-37 -22 -53 -13 -38 21 -19 94 33 122 12 7 56 17 97 24 98 15 94 15 87 8z m33
-79 c-6 -8 -20 -17 -31 -20 -10 -4 -19 -11 -19 -16 0 -6 7 -6 19 1 29 15 38
12 15 -5 -25 -19 -11 -19 26 0 45 23 36 3 -15 -34 -25 -18 -57 -48 -71 -67
-46 -60 -114 -55 -114 9 0 47 10 57 107 103 103 50 99 48 83 29z m25 -85 c-11
-12 -13 -20 -6 -20 7 0 9 -5 5 -12 -4 -7 -3 -8 5 -4 6 4 8 12 5 18 -5 7 -2 8
5 4 7 -5 21 0 33 11 24 21 18 8 -22 -49 -15 -20 -35 -57 -44 -83 -17 -42 -21
-46 -49 -43 -69 7 -60 70 20 146 54 51 83 71 48 32z m57 -52 c-18 -18 -14 -32
5 -17 15 13 15 12 3 -11 -12 -24 -11 -24 19 4 l31 30 -20 -50 c-10 -27 -22
-62 -25 -77 -5 -24 -10 -28 -33 -25 -29 3 -39 29 -28 72 7 27 43 86 53 86 4 0
2 -5 -5 -12z"/>
<path d="M2040 2310 c0 -5 5 -10 10 -10 6 0 10 5 10 10 0 6 -4 10 -10 10 -5 0
-10 -4 -10 -10z"/>
<path d="M2015 2189 c-10 -15 3 -25 16 -12 7 7 7 13 1 17 -6 3 -14 1 -17 -5z"/>
<path d="M2060 2060 c0 -5 5 -10 11 -10 5 0 7 5 4 10 -3 6 -8 10 -11 10 -2 0
-4 -4 -4 -10z"/>
<path d="M2130 1959 c0 -5 5 -7 10 -4 6 3 10 8 10 11 0 2 -4 4 -10 4 -5 0 -10
-5 -10 -11z"/>
<path d="M2175 1710 c-3 -5 -2 -10 4 -10 5 0 13 5 16 10 3 6 2 10 -4 10 -5 0
-13 -4 -16 -10z"/>
<path d="M1610 2392 c0 -12 19 -26 26 -19 2 2 -2 10 -11 17 -9 8 -15 8 -15 2z"/>
<path d="M1761 2488 c-1 -37 8 -57 32 -70 21 -11 21 -11 4 15 -19 30 -22 41
-7 32 6 -3 10 -1 10 4 0 6 -6 11 -14 11 -8 0 -17 8 -19 18 -3 11 -5 7 -6 -10z"/>
<path d="M1701 2349 c-1 -15 10 -36 27 -52 37 -35 53 -35 19 1 -14 15 -30 38
-36 52 l-10 25 0 -26z"/>
<path d="M1730 2163 c0 -18 36 -43 71 -48 l34 -6 -39 20 c-21 11 -44 25 -52
32 -8 6 -14 7 -14 2z"/>
<path d="M1770 2166 c0 -2 7 -9 15 -16 9 -7 15 -8 15 -2 0 5 -7 12 -15 16 -8
3 -15 4 -15 2z"/>
<path d="M1800 1960 c0 -6 -5 -8 -11 -4 -7 4 -10 1 -7 -6 2 -8 10 -16 18 -18
7 -3 10 0 6 6 -3 6 -1 12 6 14 9 3 9 6 0 12 -7 4 -12 2 -12 -4z"/>
<path d="M1861 1859 c-1 -22 24 -42 46 -36 14 4 13 5 -5 6 -13 1 -26 10 -32
24 -6 15 -9 17 -9 6z"/>
<path d="M1974 1759 c-3 -6 0 -15 7 -20 18 -11 26 -11 34 1 3 6 -1 10 -10 10
-9 0 -13 5 -10 10 3 6 2 10 -4 10 -5 0 -13 -5 -17 -11z"/>
<path d="M2090 1750 c0 -5 5 -10 11 -10 5 0 7 5 4 10 -3 6 -8 10 -11 10 -2 0
-4 -4 -4 -10z"/>
<path d="M2085 1720 c3 -5 10 -10 16 -10 5 0 9 5 9 10 0 6 -7 10 -16 10 -8 0
-12 -4 -9 -10z"/>
<path d="M3301 3321 c-12 -8 -10 -20 14 -73 38 -86 45 -197 17 -285 -41 -131
-206 -328 -336 -402 -87 -50 -210 -145 -241 -186 -21 -26 -30 -51 -33 -90 -4
-52 -3 -55 33 -88 50 -46 44 -72 -24 -112 -49 -28 -71 -61 -71 -105 0 -9 -9
-25 -20 -35 -11 -10 -20 -24 -20 -32 0 -7 -18 -33 -41 -58 l-41 -44 24 -11
c16 -8 42 -8 83 -2 73 12 102 2 111 -35 20 -93 22 -95 103 -87 36 4 71 10 76
14 6 4 29 7 51 7 48 -2 70 13 79 54 6 25 11 29 41 29 43 0 69 35 59 80 -6 29
-6 30 33 30 46 0 61 14 69 63 5 34 8 36 71 53 72 20 165 76 180 108 5 12 19
41 30 66 11 25 25 70 31 100 5 30 24 89 41 130 51 121 57 173 24 201 -9 8 -14
33 -14 76 0 50 -6 75 -27 116 -22 41 -28 65 -28 117 0 55 -5 73 -30 113 -42
68 -80 135 -102 182 -21 42 -94 115 -116 115 -6 0 -18 -4 -26 -9z m95 -95 c28
-28 34 -42 34 -75 0 -23 5 -41 10 -41 6 0 10 6 11 13 1 27 18 -30 18 -65 1
-26 -7 -46 -26 -69 -27 -31 -27 -32 -4 -24 23 7 23 6 17 -31 -5 -23 -21 -53
-39 -73 -26 -27 -27 -31 -9 -22 12 6 22 8 22 4 0 -14 -38 -67 -62 -86 -13 -10
-17 -16 -10 -12 18 9 15 -5 -10 -41 -12 -18 -36 -40 -53 -49 -27 -14 -27 -15
-5 -11 22 5 20 1 -17 -34 -23 -22 -47 -40 -53 -40 -5 0 -11 24 -11 53 -1 28
-4 43 -6 33 -3 -10 -9 -24 -14 -30 -5 -6 -21 -26 -36 -45 -16 -20 -21 -32 -13
-29 8 2 25 19 38 38 12 18 22 28 22 22 0 -13 -66 -100 -94 -124 -37 -32 -138
-93 -180 -108 -24 -9 -42 -23 -44 -34 -4 -16 -2 -17 20 -2 22 14 26 14 46 0
38 -26 23 -78 -28 -97 -8 -3 -2 -6 14 -6 54 -2 80 -45 55 -93 -8 -16 -17 -19
-40 -14 -22 4 -29 2 -29 -9 0 -8 4 -15 10 -15 5 0 14 -9 20 -20 25 -46 -23
-88 -61 -54 -26 23 -35 12 -14 -20 23 -34 16 -70 -14 -74 -13 -2 -28 1 -34 7
-6 6 -17 11 -24 11 -10 0 -9 -8 4 -35 13 -28 14 -37 3 -50 -15 -18 -41 -20
-58 -3 -15 15 -15 10 -1 -30 6 -18 15 -30 19 -27 5 3 14 -4 21 -16 8 -16 13
-18 19 -9 6 9 9 8 13 -6 15 -50 18 -92 7 -99 -15 -9 -50 23 -50 47 0 10 -7 35
-15 55 l-15 36 -63 -7 c-34 -3 -74 -9 -89 -12 -39 -9 -37 18 2 46 17 12 30 27
30 35 0 7 11 27 25 43 15 18 25 42 25 60 0 35 17 55 69 82 51 26 63 43 59 87
-2 30 -9 41 -30 51 -54 25 -49 104 9 172 22 25 101 85 183 138 86 57 168 119
203 155 115 119 189 258 203 383 5 44 -10 138 -31 187 -12 28 14 20 51 -17z
m150 -242 c17 -44 16 -45 -10 -96 -16 -31 -20 -46 -11 -38 9 7 18 10 21 7 10
-10 -25 -99 -49 -125 -17 -20 -18 -24 -4 -19 9 4 17 4 17 1 0 -16 -33 -65 -57
-83 -15 -11 -22 -21 -15 -21 22 0 -5 -37 -51 -72 -23 -17 -34 -28 -24 -25 15
6 14 3 -4 -22 -23 -32 -65 -58 -76 -48 -3 4 7 22 23 40 16 17 22 26 14 20 -30
-27 -33 -12 -3 20 35 37 63 78 63 91 0 5 -16 -12 -36 -38 -59 -78 -49 -45 15
51 69 102 115 204 106 236 -5 18 -4 19 5 7 9 -12 10 -9 8 15 -1 17 2 63 6 103
8 70 9 72 27 56 10 -9 26 -36 35 -60z m44 -193 c15 -29 12 -98 -5 -131 -14
-27 -14 -29 1 -23 35 13 -11 -84 -58 -122 -29 -23 -30 -26 -9 -20 l24 7 -19
-25 c-11 -14 -33 -34 -51 -43 -24 -14 -30 -21 -21 -31 8 -10 0 -17 -33 -33
-24 -11 -37 -20 -29 -20 15 -1 -46 -60 -62 -60 -4 0 2 24 13 53 12 28 22 58
22 64 0 7 12 23 26 35 l26 23 -24 -27 c-34 -39 -21 -35 15 4 16 17 23 28 17
24 -23 -13 -14 5 25 49 21 24 51 67 66 96 34 63 25 56 -26 -21 -21 -30 -63
-80 -94 -110 l-58 -55 53 60 c67 76 134 189 158 266 19 63 26 70 43 40z m-266
-191 c-15 -22 -29 -38 -31 -36 -5 5 46 76 53 76 3 0 -8 -18 -22 -40z m316 -64
c0 -42 -13 -70 -58 -118 -25 -27 -19 -41 6 -16 20 20 14 -7 -11 -43 -21 -32
-47 -49 -92 -65 -19 -6 -19 -6 -1 -13 18 -7 18 -8 -4 -29 -12 -11 -37 -24 -54
-28 -17 -4 -25 -9 -18 -11 23 -8 -8 -33 -40 -33 -16 0 -27 -4 -23 -9 3 -6 -4
-15 -15 -21 -19 -10 -20 -9 -14 17 4 15 7 28 8 28 13 5 85 59 82 62 -2 3 -23
-8 -45 -23 -23 -15 -44 -25 -46 -22 -3 3 19 21 49 41 63 42 156 129 182 172
11 17 -14 -3 -55 -44 -69 -68 -181 -151 -205 -151 -5 0 12 14 40 31 82 52 227
205 260 275 33 70 54 70 54 0z m-373 -2 c11 -30 -18 -98 -62 -140 -46 -44
-134 -98 -177 -109 -47 -12 -31 9 28 38 31 16 54 30 51 33 -3 3 -24 -4 -47
-16 -59 -30 -73 -19 -17 13 25 15 49 32 53 39 4 6 -19 -4 -51 -22 -32 -18 -55
-28 -51 -22 4 7 24 21 45 31 20 11 44 27 52 37 8 10 -15 1 -53 -20 -38 -21
-68 -34 -68 -29 0 4 19 18 43 31 24 13 76 52 117 87 76 67 123 84 137 49z m51
-156 c3 -29 -21 -85 -47 -106 -37 -31 -140 -72 -195 -78 -70 -8 -70 7 -1 26
25 7 48 17 51 21 7 13 -8 11 -55 -6 -55 -19 -52 -11 8 20 69 35 73 49 6 20
-88 -40 -85 -29 5 16 46 23 99 56 119 74 60 54 104 59 109 13z m238 -134 c-5
-22 -22 -49 -49 -75 -36 -35 -39 -40 -17 -34 l25 8 -20 -23 c-26 -29 -68 -50
-101 -50 -21 0 -24 -3 -15 -14 9 -11 6 -16 -16 -24 -72 -27 -105 -34 -116 -23
-7 7 -5 12 8 17 10 4 27 16 38 27 20 20 20 20 -9 14 -29 -6 -29 -6 -4 5 101
47 132 64 149 82 17 18 5 15 -57 -15 -42 -21 -88 -40 -102 -43 l-25 -6 25 11
c133 60 236 128 267 176 20 30 28 17 19 -33z m-280 -49 c14 -34 -6 -66 -54
-87 -55 -25 -162 -34 -212 -20 l-35 10 50 2 c28 0 63 7 80 14 27 11 24 12 -40
9 -58 -2 -64 -1 -37 7 17 6 47 14 65 20 27 8 23 8 -23 4 -40 -4 -51 -2 -40 5
8 6 26 11 40 11 14 1 50 9 80 20 70 23 119 25 126 5z m-191 -141 c96 -11 145
-46 145 -106 0 -43 -33 -55 -73 -25 -17 13 -59 34 -92 47 -33 13 -69 30 -80
38 -18 13 -18 13 13 7 37 -8 43 1 10 15 -21 8 -19 9 12 10 l35 2 -32 9 c-18 5
-33 12 -33 15 0 3 8 3 18 0 9 -3 44 -8 77 -12z m53 -152 c15 -20 16 -74 0 -90
-25 -25 -56 -11 -128 58 -40 39 -77 70 -81 70 -5 0 -9 5 -9 10 0 6 13 4 30 -5
38 -19 46 -19 29 2 -13 15 -12 15 9 4 12 -7 22 -8 22 -2 0 5 -9 12 -19 16 -11
3 -25 12 -31 20 -7 8 28 -4 76 -26 49 -23 95 -48 102 -57z m-124 -63 c50 -59
45 -111 -11 -117 -28 -3 -31 1 -57 62 -15 36 -34 71 -42 77 -9 7 -20 22 -26
33 -11 21 -11 21 10 3 12 -11 26 -16 33 -11 7 4 10 3 5 -4 -3 -6 -1 -14 5 -18
8 -4 9 -3 5 4 -4 7 -2 12 5 12 7 0 2 12 -12 27 -21 24 -19 23 18 -5 23 -18 53
-46 67 -63z m-95 -49 c25 -58 17 -90 -24 -90 -19 0 -26 7 -30 28 -3 15 -15 50
-25 77 l-20 50 25 -27 c29 -34 40 -36 24 -5 -11 20 -11 21 4 8 20 -16 23 -2 5
19 -11 12 -10 12 3 2 9 -7 26 -35 38 -62z"/>
<path d="M2940 2310 c0 -5 5 -10 10 -10 6 0 10 5 10 10 0 6 -4 10 -10 10 -5 0
-10 -4 -10 -10z"/>
<path d="M2962 2191 c4 -13 18 -16 19 -4 0 4 -5 9 -11 12 -7 2 -11 -2 -8 -8z"/>
<path d="M2925 2060 c-3 -5 -1 -10 4 -10 6 0 11 5 11 10 0 6 -2 10 -4 10 -3 0
-8 -4 -11 -10z"/>
<path d="M2855 1960 c3 -5 8 -10 11 -10 2 0 4 5 4 10 0 6 -5 10 -11 10 -5 0
-7 -4 -4 -10z"/>
<path d="M2807 1709 c7 -7 15 -10 18 -7 3 3 -2 9 -12 12 -14 6 -15 5 -6 -5z"/>
<path d="M3370 2385 c-8 -9 -8 -15 -2 -15 12 0 26 19 19 26 -2 2 -10 -2 -17
-11z"/>
<path d="M3225 2483 c-3 -16 -14 -36 -22 -46 -23 -25 -8 -32 16 -8 12 12 21
34 21 51 0 37 -6 38 -15 3z"/>
<path d="M3196 2463 c-6 -14 -5 -15 5 -6 7 7 10 15 7 18 -3 3 -9 -2 -12 -12z"/>
<path d="M3290 2355 c0 -8 -14 -30 -31 -50 -17 -19 -27 -35 -21 -35 16 0 62
60 62 81 0 10 -2 19 -5 19 -3 0 -5 -7 -5 -15z"/>
<path d="M3210 2160 c-9 -6 -10 -10 -3 -10 6 0 15 5 18 10 8 12 4 12 -15 0z"/>
<path d="M3254 2160 c-5 -5 -27 -19 -49 -29 -28 -14 -34 -20 -20 -21 24 0 85
36 85 50 0 13 -3 13 -16 0z"/>
<path d="M3186 1962 c-4 -7 -2 -12 4 -12 6 0 8 -5 4 -11 -4 -7 -1 -10 6 -7 8
2 16 10 18 18 3 7 0 10 -6 6 -6 -3 -12 -1 -14 6 -3 9 -6 9 -12 0z"/>
<path d="M3128 1853 c-3 -12 -16 -23 -29 -26 -22 -4 -22 -4 -3 -6 24 -1 48 22
42 41 -3 7 -7 3 -10 -9z"/>
<path d="M3010 1761 c12 -9 11 -11 -9 -11 -17 0 -22 -3 -15 -10 13 -13 46 -2
41 13 -2 6 -10 12 -18 15 -11 3 -11 2 1 -7z"/>
<path d="M2890 1720 c0 -5 7 -7 15 -4 8 4 15 8 15 10 0 2 -7 4 -15 4 -8 0 -15
-4 -15 -10z"/>
</g>
</svg>
